# xmcd
#
# Track frame offsets:
#	150
#	11540
#	29301
#	42833
#	56909
#	67513
#	78973
#	98183
#	114559
#	124476
#	138736
#
# Disc length: 2002 seconds
#
# Revision: 1
# Processed by: cddbd v1.5.1PL0 Copyright (c) Steve Scherf et al.
# Submitted via: audiograbber 1.83.01
#
DISCID=9007d00b
DTITLE=Piper McMahan - Headed Your Way
DYEAR=1900
DGENRE=
TTITLE0=Goodbye Charlie
TTITLE1=Headed Your Way
TTITLE2=Scumbag
TTITLE3=Love is Just a Word
TTITLE4=I Can't Wait
TTITLE5=Here to Hear the Band
TTITLE6=Together
TTITLE7=Real Love
TTITLE8=Arizona Cactus
TTITLE9=Empty
TTITLE10=Goodbye Charlie
EXTD=
EXTT0=
EXTT1=
EXTT2=
EXTT3=
EXTT4=
EXTT5=
EXTT6=
EXTT7=
EXTT8=
EXTT9=
EXTT10=
PLAYORDER=
